ffmpeg started on 2026-04-09 at 19:43:13
Report written to "D:\Convert\FFMetrics\reports\ssim_report-6.txt"
Log level: 32
Command line:
ffmpeg -hide_banner -nostdin -r 24000/1001 -i "F:\\Convert\\files\\[DC] Make Heroine ga Oosugiru - 07_Telegram_HEVC(309).mkv" -r 24000/1001 -i "F:\\Convert\\files\\[DC] Make Heroine ga Oosugiru - 07_Telegram.mp4" -lavfi "[0:v]settb=AVTB,setpts=PTS-STARTPTS,format=pix_fmts=yuv420p10le,fps=24000/1001,scale=1920:1080:flags=lanczos:param0=3:out_range=limited:out_color_matrix=bt709:out_chroma_loc=left,setsar=1/1,setdar=(1920/1080)*(1/1),colorspace=format=yuv420p10:range=tv:primaries=bt709:trc=bt709:space=bt709:fast=0[main];[1:v]settb=AVTB,setpts=PTS-STARTPTS,format=pix_fmts=yuv420p,fps=24000/1001,scale=1920:1080:flags=lanczos:param0=3:out_range=limited:out_color_matrix=bt709:out_chroma_loc=left,setsar=1/1,setdar=(1920/1080)*(1/1),colorspace=format=yuv420p:range=tv:primaries=bt709:trc=bt709:space=bt709:fast=0[ref];[main][ref]ssim=eof_action=endall:stats_file='D\\:/Convert/FFMetrics/logs/ssim_logfile-6.txt'" -f null -
Input #0, matroska,webm, from 'F:\Convert\files\[DC] Make Heroine ga Oosugiru - 07_Telegram_HEVC(309).mkv':
  Metadata:
    COMPATIBLE_BRANDS: isomiso2avc1mp41
    MAJOR_BRAND     : isom
    MINOR_VERSION   : 512
    ENCODER         : Lavf61.7.100
  Duration: 00:24:06.79, start: -0.021000, bitrate: 904 kb/s
  Stream #0:0: Video: hevc (Main 10), yuv420p10le(tv, bt709, progressive), 1920x1080 [SAR 1:1 DAR 16:9], 23.98 fps, 23.98 tbr, 1k tbn (default)
      Metadata:
        HANDLER_NAME    : VideoHandler
        VENDOR_ID       : [0][0][0][0]
        ENCODER         : Lavc61.19.100 libx265
        BPS             : 707740
        DURATION        : 00:24:06.569708333
        NUMBER_OF_FRAMES: 34683
        NUMBER_OF_BYTES : 127974463
        _STATISTICS_WRITING_APP: mkvpropedit v94.0 ('Initiate') 64-bit
        _STATISTICS_WRITING_DATE_UTC: 2026-04-09 16:15:24
        _STATISTICS_TAGS: BPS DURATION NUMBER_OF_FRAMES NUMBER_OF_BYTES
  Stream #0:1: Audio: aac (LC), 48000 Hz, stereo, fltp (default)
      Metadata:
        HANDLER_NAME    : SoundHandler
        VENDOR_ID       : [0][0][0][0]
        ENCODER         : Lavc61.19.100 aac
        BPS             : 193194
        DURATION        : 00:24:06.784000000
        NUMBER_OF_FRAMES: 67819
        NUMBER_OF_BYTES : 34938755
        _STATISTICS_WRITING_APP: mkvpropedit v94.0 ('Initiate') 64-bit
        _STATISTICS_WRITING_DATE_UTC: 2026-04-09 16:15:24
        _STATISTICS_TAGS: BPS DURATION NUMBER_OF_FRAMES NUMBER_OF_BYTES
Input #1, mov,mp4,m4a,3gp,3g2,mj2, from 'F:\Convert\files\[DC] Make Heroine ga Oosugiru - 07_Telegram.mp4':
  Metadata:
    major_brand     : isom
    minor_version   : 512
    compatible_brands: isomiso2avc1mp41
    encoder         : Lavf60.16.100
  Duration: 00:24:06.74, start: 0.000000, bitrate: 3764 kb/s
  Stream #1:0[0x1](und): Video: h264 (High) (avc1 / 0x31637661), yuv420p(tv, bt709, progressive), 1920x1080 [SAR 1:1 DAR 16:9], 3616 kb/s, 23.98 fps, 23.98 tbr, 24k tbn (default)
      Metadata:
        handler_name    : VideoHandler
        vendor_id       : [0][0][0][0]
        encoder         : Lavc60.31.102 h264_qsv
  Stream #1:1[0x2](und): Audio: aac (HE-AACv2) (mp4a / 0x6134706D), 48000 Hz, stereo, fltp, 144 kb/s (default)
      Metadata:
        handler_name    : SoundHandler
        vendor_id       : [0][0][0][0]
Stream mapping:
  Stream #0:0 (hevc) -> settb:default
  Stream #1:0 (h264) -> settb:default
  ssim:default -> Stream #0:0 (wrapped_avframe)
  Stream #0:1 -> #0:1 (aac (native) -> pcm_s16le (native))
Output #0, null, to 'pipe:':
  Metadata:
    COMPATIBLE_BRANDS: isomiso2avc1mp41
    MAJOR_BRAND     : isom
    MINOR_VERSION   : 512
    encoder         : Lavf61.7.100
  Stream #0:0: Video: wrapped_avframe, yuv420p10le(tv, bt709, progressive), 1920x1080 [SAR 1:1 DAR 16:9], q=2-31, 200 kb/s, 23.98 fps, 23.98 tbn
      Metadata:
        encoder         : Lavc61.19.100 wrapped_avframe
  Stream #0:1: Audio: pcm_s16le, 48000 Hz, stereo, s16, 1536 kb/s (default)
      Metadata:
        HANDLER_NAME    : SoundHandler
        VENDOR_ID       : [0][0][0][0]
        _STATISTICS_TAGS: BPS DURATION NUMBER_OF_FRAMES NUMBER_OF_BYTES
        BPS             : 193194
        DURATION        : 00:24:06.784000000
        NUMBER_OF_FRAMES: 67819
        NUMBER_OF_BYTES : 34938755
        _STATISTICS_WRITING_APP: mkvpropedit v94.0 ('Initiate') 64-bit
        _STATISTICS_WRITING_DATE_UTC: 2026-04-09 16:15:24
        encoder         : Lavc61.19.100 pcm_s16le
frame=  116 fps=0.0 q=-0.0 size=N/A time=00:00:04.83 bitrate=N/A speed=9.39x    frame=  276 fps=269 q=-0.0 size=N/A time=00:00:11.51 bitrate=N/A speed=11.2x    frame=  445 fps=289 q=-0.0 size=N/A time=00:00:18.56 bitrate=N/A speed=12.1x    frame=  619 fps=300 q=-0.0 size=N/A time=00:00:25.81 bitrate=N/A speed=12.5x    frame=  788 fps=306 q=-0.0 size=N/A time=00:00:32.86 bitrate=N/A speed=12.7x    frame=  932 fps=302 q=-0.0 size=N/A time=00:00:38.87 bitrate=N/A speed=12.6x    frame= 1070 fps=297 q=-0.0 size=N/A time=00:00:44.62 bitrate=N/A speed=12.4x    frame= 1220 fps=295 q=-0.0 size=N/A time=00:00:50.88 bitrate=N/A speed=12.3x    frame= 1364 fps=294 q=-0.0 size=N/A time=00:00:56.89 bitrate=N/A speed=12.3x    frame= 1509 fps=293 q=-0.0 size=N/A time=00:01:02.93 bitrate=N/A speed=12.2x    frame= 1638 fps=289 q=-0.0 size=N/A time=00:01:08.31 bitrate=N/A speed=12.1x    frame= 1785 fps=289 q=-0.0 size=N/A time=00:01:14.44 bitrate=N/A speed=  12x    frame= 1929 fps=288 q=-0.0 size=N/A time=00:01:20.45 bitrate=N/A speed=  12x    frame= 2066 fps=286 q=-0.0 size=N/A time=00:01:26.16 bitrate=N/A speed=11.9x    frame= 2190 fps=283 q=-0.0 size=N/A time=00:01:31.34 bitrate=N/A speed=11.8x    frame= 2334 fps=283 q=-0.0 size=N/A time=00:01:37.34 bitrate=N/A speed=11.8x    frame= 2467 fps=281 q=-0.0 size=N/A time=00:01:42.89 bitrate=N/A speed=11.7x    frame= 2595 fps=280 q=-0.0 size=N/A time=00:01:48.23 bitrate=N/A speed=11.7x    frame= 2750 fps=281 q=-0.0 size=N/A time=00:01:54.69 bitrate=N/A speed=11.7x    frame= 2912 fps=283 q=-0.0 size=N/A time=00:02:01.45 bitrate=N/A speed=11.8x    frame= 3078 fps=284 q=-0.0 size=N/A time=00:02:08.37 bitrate=N/A speed=11.9x    frame= 3239 fps=286 q=-0.0 size=N/A time=00:02:15.09 bitrate=N/A speed=11.9x    frame= 3406 fps=287 q=-0.0 size=N/A time=00:02:22.05 bitrate=N/A speed=  12x    frame= 3576 fps=289 q=-0.0 size=N/A time=00:02:29.14 bitrate=N/A speed=12.1x    frame= 3755 fps=291 q=-0.0 size=N/A time=00:02:36.61 bitrate=N/A speed=12.1x    frame= 3923 fps=293 q=-0.0 size=N/A time=00:02:43.62 bitrate=N/A speed=12.2x    frame= 4096 fps=294 q=-0.0 size=N/A time=00:02:50.83 bitrate=N/A speed=12.3x    frame= 4266 fps=295 q=-0.0 size=N/A time=00:02:57.92 bitrate=N/A speed=12.3x    frame= 4436 fps=297 q=-0.0 size=N/A time=00:03:05.01 bitrate=N/A speed=12.4x    frame= 4604 fps=298 q=-0.0 size=N/A time=00:03:12.02 bitrate=N/A speed=12.4x    frame= 4768 fps=298 q=-0.0 size=N/A time=00:03:18.86 bitrate=N/A speed=12.4x    frame= 4937 fps=299 q=-0.0 size=N/A time=00:03:25.91 bitrate=N/A speed=12.5x    frame= 5114 fps=301 q=-0.0 size=N/A time=00:03:33.29 bitrate=N/A speed=12.5x    frame= 5276 fps=301 q=-0.0 size=N/A time=00:03:40.05 bitrate=N/A speed=12.6x    frame= 5455 fps=302 q=-0.0 size=N/A time=00:03:47.51 bitrate=N/A speed=12.6x    frame= 5625 fps=303 q=-0.0 size=N/A time=00:03:54.60 bitrate=N/A speed=12.6x    frame= 5790 fps=304 q=-0.0 size=N/A time=00:04:01.49 bitrate=N/A speed=12.7x    frame= 5961 fps=304 q=-0.0 size=N/A time=00:04:08.62 bitrate=N/A speed=12.7x    frame= 6125 fps=305 q=-0.0 size=N/A time=00:04:15.46 bitrate=N/A speed=12.7x    frame= 6297 fps=305 q=-0.0 size=N/A time=00:04:22.63 bitrate=N/A speed=12.7x    frame= 6460 fps=306 q=-0.0 size=N/A time=00:04:29.43 bitrate=N/A speed=12.7x    frame= 6634 fps=306 q=-0.0 size=N/A time=00:04:36.69 bitrate=N/A speed=12.8x    frame= 6805 fps=307 q=-0.0 size=N/A time=00:04:43.82 bitrate=N/A speed=12.8x    frame= 6972 fps=307 q=-0.0 size=N/A time=00:04:50.79 bitrate=N/A speed=12.8x    frame= 7142 fps=308 q=-0.0 size=N/A time=00:04:57.88 bitrate=N/A speed=12.8x    frame= 7308 fps=308 q=-0.0 size=N/A time=00:05:04.80 bitrate=N/A speed=12.9x    frame= 7473 fps=308 q=-0.0 size=N/A time=00:05:11.68 bitrate=N/A speed=12.9x    frame= 7621 fps=308 q=-0.0 size=N/A time=00:05:17.85 bitrate=N/A speed=12.8x    frame= 7789 fps=308 q=-0.0 size=N/A time=00:05:24.86 bitrate=N/A speed=12.9x    frame= 7961 fps=309 q=-0.0 size=N/A time=00:05:32.04 bitrate=N/A speed=12.9x    frame= 8121 fps=309 q=-0.0 size=N/A time=00:05:38.71 bitrate=N/A speed=12.9x    frame= 8290 fps=309 q=-0.0 size=N/A time=00:05:45.76 bitrate=N/A speed=12.9x    frame= 8449 fps=309 q=-0.0 size=N/A time=00:05:52.39 bitrate=N/A speed=12.9x    frame= 8616 fps=310 q=-0.0 size=N/A time=00:05:59.35 bitrate=N/A speed=12.9x    frame= 8787 fps=310 q=-0.0 size=N/A time=00:06:06.49 bitrate=N/A speed=12.9x    frame= 8953 fps=310 q=-0.0 size=N/A time=00:06:13.41 bitrate=N/A speed=12.9x    frame= 9116 fps=310 q=-0.0 size=N/A time=00:06:20.21 bitrate=N/A speed=12.9x    frame= 9290 fps=311 q=-0.0 size=N/A time=00:06:27.47 bitrate=N/A speed=  13x    frame= 9460 fps=311 q=-0.0 size=N/A time=00:06:34.56 bitrate=N/A speed=  13x    frame= 9628 fps=311 q=-0.0 size=N/A time=00:06:41.56 bitrate=N/A speed=  13x    frame= 9801 fps=312 q=-0.0 size=N/A time=00:06:48.78 bitrate=N/A speed=  13x    frame= 9975 fps=312 q=-0.0 size=N/A time=00:06:56.04 bitrate=N/A speed=  13x    frame=10139 fps=312 q=-0.0 size=N/A time=00:07:02.88 bitrate=N/A speed=  13x    frame=10310 fps=312 q=-0.0 size=N/A time=00:07:10.01 bitrate=N/A speed=  13x    frame=10478 fps=312 q=-0.0 size=N/A time=00:07:17.01 bitrate=N/A speed=  13x    frame=10647 fps=313 q=-0.0 size=N/A time=00:07:24.06 bitrate=N/A speed=  13x    frame=10807 fps=313 q=-0.0 size=N/A time=00:07:30.74 bitrate=N/A speed=  13x    frame=10984 fps=313 q=-0.0 size=N/A time=00:07:38.12 bitrate=N/A speed=13.1x    frame=11142 fps=313 q=-0.0 size=N/A time=00:07:44.71 bitrate=N/A speed=13.1x    frame=11307 fps=313 q=-0.0 size=N/A time=00:07:51.59 bitrate=N/A speed=13.1x    frame=11475 fps=313 q=-0.0 size=N/A time=00:07:58.60 bitrate=N/A speed=13.1x    frame=11643 fps=313 q=-0.0 size=N/A time=00:08:05.61 bitrate=N/A speed=13.1x    frame=11813 fps=314 q=-0.0 size=N/A time=00:08:12.70 bitrate=N/A speed=13.1x    frame=11974 fps=314 q=-0.0 size=N/A time=00:08:19.41 bitrate=N/A speed=13.1x    frame=12145 fps=314 q=-0.0 size=N/A time=00:08:26.54 bitrate=N/A speed=13.1x    frame=12309 fps=314 q=-0.0 size=N/A time=00:08:33.38 bitrate=N/A speed=13.1x    frame=12480 fps=314 q=-0.0 size=N/A time=00:08:40.52 bitrate=N/A speed=13.1x    frame=12654 fps=314 q=-0.0 size=N/A time=00:08:47.77 bitrate=N/A speed=13.1x    frame=12823 fps=315 q=-0.0 size=N/A time=00:08:54.82 bitrate=N/A speed=13.1x    frame=12983 fps=315 q=-0.0 size=N/A time=00:09:01.49 bitrate=N/A speed=13.1x    frame=13162 fps=315 q=-0.0 size=N/A time=00:09:08.96 bitrate=N/A speed=13.1x    frame=13325 fps=315 q=-0.0 size=N/A time=00:09:15.76 bitrate=N/A speed=13.1x    frame=13488 fps=315 q=-0.0 size=N/A time=00:09:22.56 bitrate=N/A speed=13.1x    frame=13662 fps=315 q=-0.0 size=N/A time=00:09:29.81 bitrate=N/A speed=13.1x    frame=13835 fps=315 q=-0.0 size=N/A time=00:09:37.03 bitrate=N/A speed=13.2x    frame=13997 fps=315 q=-0.0 size=N/A time=00:09:43.79 bitrate=N/A speed=13.2x    frame=14167 fps=315 q=-0.0 size=N/A time=00:09:50.88 bitrate=N/A speed=13.2x    frame=14335 fps=316 q=-0.0 size=N/A time=00:09:57.88 bitrate=N/A speed=13.2x    frame=14499 fps=316 q=-0.0 size=N/A time=00:10:04.72 bitrate=N/A speed=13.2x    frame=14667 fps=316 q=-0.0 size=N/A time=00:10:11.73 bitrate=N/A speed=13.2x    frame=14839 fps=316 q=-0.0 size=N/A time=00:10:18.90 bitrate=N/A speed=13.2x    frame=15007 fps=316 q=-0.0 size=N/A time=00:10:25.91 bitrate=N/A speed=13.2x    frame=15166 fps=316 q=-0.0 size=N/A time=00:10:32.54 bitrate=N/A speed=13.2x    frame=15329 fps=316 q=-0.0 size=N/A time=00:10:39.34 bitrate=N/A speed=13.2x    frame=15497 fps=316 q=-0.0 size=N/A time=00:10:46.35 bitrate=N/A speed=13.2x    frame=15668 fps=316 q=-0.0 size=N/A time=00:10:53.48 bitrate=N/A speed=13.2x    frame=15830 fps=316 q=-0.0 size=N/A time=00:11:00.24 bitrate=N/A speed=13.2x    frame=15990 fps=316 q=-0.0 size=N/A time=00:11:06.91 bitrate=N/A speed=13.2x    frame=16170 fps=316 q=-0.0 size=N/A time=00:11:14.42 bitrate=N/A speed=13.2x    frame=16335 fps=317 q=-0.0 size=N/A time=00:11:21.30 bitrate=N/A speed=13.2x    frame=16497 fps=317 q=-0.0 size=N/A time=00:11:28.06 bitrate=N/A speed=13.2x    frame=16659 fps=317 q=-0.0 size=N/A time=00:11:34.81 bitrate=N/A speed=13.2x    frame=16836 fps=317 q=-0.0 size=N/A time=00:11:42.20 bitrate=N/A speed=13.2x    frame=17004 fps=317 q=-0.0 size=N/A time=00:11:49.20 bitrate=N/A speed=13.2x    frame=17180 fps=317 q=-0.0 size=N/A time=00:11:56.54 bitrate=N/A speed=13.2x    frame=17345 fps=317 q=-0.0 size=N/A time=00:12:03.43 bitrate=N/A speed=13.2x    frame=17515 fps=317 q=-0.0 size=N/A time=00:12:10.52 bitrate=N/A speed=13.2x    frame=17676 fps=317 q=-0.0 size=N/A time=00:12:17.23 bitrate=N/A speed=13.2x    frame=17849 fps=317 q=-0.0 size=N/A time=00:12:24.45 bitrate=N/A speed=13.2x    frame=18015 fps=317 q=-0.0 size=N/A time=00:12:31.37 bitrate=N/A speed=13.2x    frame=18187 fps=317 q=-0.0 size=N/A time=00:12:38.54 bitrate=N/A speed=13.2x    frame=18352 fps=317 q=-0.0 size=N/A time=00:12:45.43 bitrate=N/A speed=13.2x    frame=18494 fps=317 q=-0.0 size=N/A time=00:12:51.35 bitrate=N/A speed=13.2x    frame=18673 fps=317 q=-0.0 size=N/A time=00:12:58.81 bitrate=N/A speed=13.2x    frame=18840 fps=317 q=-0.0 size=N/A time=00:13:05.78 bitrate=N/A speed=13.2x    frame=19014 fps=318 q=-0.0 size=N/A time=00:13:13.04 bitrate=N/A speed=13.2x    frame=19174 fps=318 q=-0.0 size=N/A time=00:13:19.71 bitrate=N/A speed=13.2x    frame=19346 fps=318 q=-0.0 size=N/A time=00:13:26.88 bitrate=N/A speed=13.2x    frame=19507 fps=318 q=-0.0 size=N/A time=00:13:33.60 bitrate=N/A speed=13.2x    frame=19680 fps=318 q=-0.0 size=N/A time=00:13:40.82 bitrate=N/A speed=13.3x    frame=19857 fps=318 q=-0.0 size=N/A time=00:13:48.20 bitrate=N/A speed=13.3x    frame=20034 fps=318 q=-0.0 size=N/A time=00:13:55.58 bitrate=N/A speed=13.3x    frame=20200 fps=318 q=-0.0 size=N/A time=00:14:02.50 bitrate=N/A speed=13.3x    frame=20369 fps=318 q=-0.0 size=N/A time=00:14:09.55 bitrate=N/A speed=13.3x    frame=20536 fps=318 q=-0.0 size=N/A time=00:14:16.52 bitrate=N/A speed=13.3x    frame=20701 fps=318 q=-0.0 size=N/A time=00:14:23.40 bitrate=N/A speed=13.3x    frame=20873 fps=318 q=-0.0 size=N/A time=00:14:30.57 bitrate=N/A speed=13.3x    frame=21046 fps=318 q=-0.0 size=N/A time=00:14:37.79 bitrate=N/A speed=13.3x    frame=21209 fps=318 q=-0.0 size=N/A time=00:14:44.59 bitrate=N/A speed=13.3x    frame=21386 fps=319 q=-0.0 size=N/A time=00:14:51.97 bitrate=N/A speed=13.3x    frame=21553 fps=319 q=-0.0 size=N/A time=00:14:58.93 bitrate=N/A speed=13.3x    frame=21714 fps=319 q=-0.0 size=N/A time=00:15:05.65 bitrate=N/A speed=13.3x    frame=21882 fps=319 q=-0.0 size=N/A time=00:15:12.66 bitrate=N/A speed=13.3x    frame=22052 fps=319 q=-0.0 size=N/A time=00:15:19.75 bitrate=N/A speed=13.3x    frame=22214 fps=319 q=-0.0 size=N/A time=00:15:26.50 bitrate=N/A speed=13.3x    frame=22386 fps=319 q=-0.0 size=N/A time=00:15:33.68 bitrate=N/A speed=13.3x    frame=22555 fps=319 q=-0.0 size=N/A time=00:15:40.73 bitrate=N/A speed=13.3x    frame=22726 fps=319 q=-0.0 size=N/A time=00:15:47.86 bitrate=N/A speed=13.3x    frame=22886 fps=319 q=-0.0 size=N/A time=00:15:54.53 bitrate=N/A speed=13.3x    frame=23053 fps=319 q=-0.0 size=N/A time=00:16:01.50 bitrate=N/A speed=13.3x    frame=23221 fps=319 q=-0.0 size=N/A time=00:16:08.50 bitrate=N/A speed=13.3x    frame=23392 fps=319 q=-0.0 size=N/A time=00:16:15.64 bitrate=N/A speed=13.3x    frame=23565 fps=319 q=-0.0 size=N/A time=00:16:22.85 bitrate=N/A speed=13.3x    frame=23725 fps=319 q=-0.0 size=N/A time=00:16:29.53 bitrate=N/A speed=13.3x    frame=23887 fps=319 q=-0.0 size=N/A time=00:16:36.28 bitrate=N/A speed=13.3x    frame=24062 fps=319 q=-0.0 size=N/A time=00:16:43.58 bitrate=N/A speed=13.3x    frame=24228 fps=319 q=-0.0 size=N/A time=00:16:50.50 bitrate=N/A speed=13.3x    frame=24398 fps=319 q=-0.0 size=N/A time=00:16:57.59 bitrate=N/A speed=13.3x    frame=24569 fps=319 q=-0.0 size=N/A time=00:17:04.73 bitrate=N/A speed=13.3x    frame=24738 fps=319 q=-0.0 size=N/A time=00:17:11.78 bitrate=N/A speed=13.3x    frame=24904 fps=319 q=-0.0 size=N/A time=00:17:18.70 bitrate=N/A speed=13.3x    frame=25074 fps=320 q=-0.0 size=N/A time=00:17:25.79 bitrate=N/A speed=13.3x    frame=25240 fps=320 q=-0.0 size=N/A time=00:17:32.71 bitrate=N/A speed=13.3x    frame=25407 fps=320 q=-0.0 size=N/A time=00:17:39.68 bitrate=N/A speed=13.3x    frame=25576 fps=320 q=-0.0 size=N/A time=00:17:46.73 bitrate=N/A speed=13.3x    frame=25747 fps=320 q=-0.0 size=N/A time=00:17:53.86 bitrate=N/A speed=13.3x    frame=25914 fps=320 q=-0.0 size=N/A time=00:18:00.82 bitrate=N/A speed=13.3x    frame=26083 fps=320 q=-0.0 size=N/A time=00:18:07.87 bitrate=N/A speed=13.3x    frame=26255 fps=320 q=-0.0 size=N/A time=00:18:15.05 bitrate=N/A speed=13.3x    frame=26418 fps=320 q=-0.0 size=N/A time=00:18:21.85 bitrate=N/A speed=13.3x    frame=26595 fps=320 q=-0.0 size=N/A time=00:18:29.23 bitrate=N/A speed=13.3x    frame=26774 fps=320 q=-0.0 size=N/A time=00:18:36.69 bitrate=N/A speed=13.4x    frame=26935 fps=320 q=-0.0 size=N/A time=00:18:43.41 bitrate=N/A speed=13.3x    frame=27095 fps=320 q=-0.0 size=N/A time=00:18:50.08 bitrate=N/A speed=13.3x    frame=27252 fps=320 q=-0.0 size=N/A time=00:18:56.63 bitrate=N/A speed=13.3x    frame=27424 fps=320 q=-0.0 size=N/A time=00:19:03.80 bitrate=N/A speed=13.3x    frame=27558 fps=320 q=-0.0 size=N/A time=00:19:09.39 bitrate=N/A speed=13.3x    frame=27729 fps=320 q=-0.0 size=N/A time=00:19:16.53 bitrate=N/A speed=13.3x    frame=27882 fps=320 q=-0.0 size=N/A time=00:19:22.91 bitrate=N/A speed=13.3x    frame=28051 fps=320 q=-0.0 size=N/A time=00:19:29.96 bitrate=N/A speed=13.3x    frame=28221 fps=320 q=-0.0 size=N/A time=00:19:37.05 bitrate=N/A speed=13.3x    frame=28397 fps=320 q=-0.0 size=N/A time=00:19:44.39 bitrate=N/A speed=13.3x    frame=28571 fps=320 q=-0.0 size=N/A time=00:19:51.64 bitrate=N/A speed=13.3x    frame=28742 fps=320 q=-0.0 size=N/A time=00:19:58.78 bitrate=N/A speed=13.3x    frame=28893 fps=320 q=-0.0 size=N/A time=00:20:05.07 bitrate=N/A speed=13.3x    frame=29043 fps=320 q=-0.0 size=N/A time=00:20:11.33 bitrate=N/A speed=13.3x    frame=29205 fps=320 q=-0.0 size=N/A time=00:20:18.09 bitrate=N/A speed=13.3x    frame=29365 fps=320 q=-0.0 size=N/A time=00:20:24.76 bitrate=N/A speed=13.3x    frame=29525 fps=319 q=-0.0 size=N/A time=00:20:31.43 bitrate=N/A speed=13.3x    frame=29689 fps=320 q=-0.0 size=N/A time=00:20:38.27 bitrate=N/A speed=13.3x    frame=29844 fps=319 q=-0.0 size=N/A time=00:20:44.74 bitrate=N/A speed=13.3x    frame=30000 fps=319 q=-0.0 size=N/A time=00:20:51.25 bitrate=N/A speed=13.3x    frame=30156 fps=319 q=-0.0 size=N/A time=00:20:57.75 bitrate=N/A speed=13.3x    frame=30319 fps=319 q=-0.0 size=N/A time=00:21:04.55 bitrate=N/A speed=13.3x    frame=30491 fps=319 q=-0.0 size=N/A time=00:21:11.72 bitrate=N/A speed=13.3x    frame=30659 fps=319 q=-0.0 size=N/A time=00:21:18.73 bitrate=N/A speed=13.3x    frame=30826 fps=319 q=-0.0 size=N/A time=00:21:25.70 bitrate=N/A speed=13.3x    frame=30997 fps=319 q=-0.0 size=N/A time=00:21:32.83 bitrate=N/A speed=13.3x    frame=31164 fps=319 q=-0.0 size=N/A time=00:21:39.79 bitrate=N/A speed=13.3x    frame=31326 fps=319 q=-0.0 size=N/A time=00:21:46.55 bitrate=N/A speed=13.3x    frame=31488 fps=319 q=-0.0 size=N/A time=00:21:53.31 bitrate=N/A speed=13.3x    frame=31653 fps=319 q=-0.0 size=N/A time=00:22:00.19 bitrate=N/A speed=13.3x    frame=31812 fps=319 q=-0.0 size=N/A time=00:22:06.82 bitrate=N/A speed=13.3x    frame=31968 fps=319 q=-0.0 size=N/A time=00:22:13.33 bitrate=N/A speed=13.3x    frame=32133 fps=319 q=-0.0 size=N/A time=00:22:20.21 bitrate=N/A speed=13.3x    frame=32304 fps=319 q=-0.0 size=N/A time=00:22:27.34 bitrate=N/A speed=13.3x    frame=32472 fps=319 q=-0.0 size=N/A time=00:22:34.35 bitrate=N/A speed=13.3x    frame=32636 fps=319 q=-0.0 size=N/A time=00:22:41.19 bitrate=N/A speed=13.3x    frame=32772 fps=319 q=-0.0 size=N/A time=00:22:46.86 bitrate=N/A speed=13.3x    frame=32934 fps=319 q=-0.0 size=N/A time=00:22:53.62 bitrate=N/A speed=13.3x    frame=33092 fps=319 q=-0.0 size=N/A time=00:23:00.21 bitrate=N/A speed=13.3x    frame=33256 fps=319 q=-0.0 size=N/A time=00:23:07.05 bitrate=N/A speed=13.3x    frame=33417 fps=319 q=-0.0 size=N/A time=00:23:13.76 bitrate=N/A speed=13.3x    frame=33559 fps=319 q=-0.0 size=N/A time=00:23:19.68 bitrate=N/A speed=13.3x    frame=33699 fps=318 q=-0.0 size=N/A time=00:23:25.52 bitrate=N/A speed=13.3x    frame=33822 fps=318 q=-0.0 size=N/A time=00:23:30.65 bitrate=N/A speed=13.3x    frame=33950 fps=318 q=-0.0 size=N/A time=00:23:35.99 bitrate=N/A speed=13.2x    frame=34090 fps=317 q=-0.0 size=N/A time=00:23:41.83 bitrate=N/A speed=13.2x    frame=34249 fps=317 q=-0.0 size=N/A time=00:23:48.46 bitrate=N/A speed=13.2x    frame=34371 fps=317 q=-0.0 size=N/A time=00:23:53.55 bitrate=N/A speed=13.2x    frame=34508 fps=317 q=-0.0 size=N/A time=00:23:59.27 bitrate=N/A speed=13.2x    [Parsed_ssim_16 @ 000001d08bd98c80] SSIM Y:0.993764 (22.050727) U:0.993990 (22.211454) V:0.993596 (21.935676) All:0.993774 (22.057599)
[out#0/null @ 000001d0ff01dec0] video:14903KiB audio:271276KiB subtitle:0KiB other streams:0KiB global headers:0KiB muxing overhead: unknown
frame=34683 fps=317 q=-0.0 Lsize=N/A time=00:24:06.57 bitrate=N/A speed=13.2x    
